<svg width="30" height="30" viewBox="0 0 30 30" fill="none" xmlns="http://www.w3.org/2000/svg">
<g clip-path="url(#clip0_184_1932)">
<path d="M28.1066 13.7188L15.0004 21.5838L1.89412 13.7188C1.60984 13.5482 1.26944 13.4976 0.947819 13.578C0.626194 13.6584 0.349683 13.8633 0.179116 14.1475C0.00854829 14.4318 -0.0421037 14.7722 0.0383025 15.0938C0.118709 15.4155 0.323587 15.692 0.607866 15.8625L14.3579 24.1125C14.5523 24.2293 14.7748 24.291 15.0016 24.291C15.2284 24.291 15.451 24.2293 15.6454 24.1125L29.3954 15.8625C29.6796 15.692 29.8845 15.4155 29.9649 15.0938C30.0453 14.7722 29.9947 14.4318 29.8241 14.1475C29.6536 13.8633 29.377 13.6584 29.0554 13.578C28.7338 13.4976 28.3934 13.5482 28.1091 13.7188H28.1066Z" fill="url(#paint0_linear_184_1932)"/>
<path d="M28.1066 19.4287L15.0004 27.2925L1.89411 19.4287C1.75335 19.3443 1.59733 19.2884 1.43497 19.2642C1.2726 19.2401 1.10707 19.2481 0.947815 19.2879C0.788562 19.3277 0.638711 19.3985 0.506817 19.4963C0.374922 19.594 0.263568 19.7167 0.179112 19.8575C0.0946555 19.9983 0.038751 20.1543 0.0145902 20.3166C-0.00957051 20.479 -0.00151434 20.6445 0.0382988 20.8038C0.118705 21.1254 0.323583 21.4019 0.607862 21.5725L14.3579 29.8225C14.5523 29.9393 14.7748 30.001 15.0016 30.001C15.2284 30.001 15.4509 29.9393 15.6454 29.8225L29.3954 21.5725C29.6796 21.4019 29.8845 21.1254 29.9649 20.8038C30.0453 20.4822 29.9947 20.1418 29.8241 19.8575C29.6535 19.5732 29.377 19.3683 29.0554 19.2879C28.7338 19.2075 28.3934 19.2582 28.1091 19.4287H28.1066Z" fill="url(#paint1_linear_184_1932)"/>
<path d="M0.605855 10.4462L13.0859 17.9349C13.6637 18.2826 14.3253 18.4662 14.9996 18.4662C15.6739 18.4662 16.3355 18.2826 16.9134 17.9349L29.3934 10.4462C29.5782 10.3351 29.7311 10.178 29.8373 9.9903C29.9434 9.80259 29.9992 9.5906 29.9992 9.37495C29.9992 9.15929 29.9434 8.94731 29.8373 8.75959C29.7311 8.57188 29.5782 8.41483 29.3934 8.3037L16.9134 0.814947C16.3354 0.467734 15.6738 0.284302 14.9996 0.284302C14.3254 0.284302 13.6638 0.467734 13.0859 0.814947L0.605855 8.3037C0.421039 8.41483 0.268118 8.57188 0.161955 8.75959C0.0557928 8.94731 0 9.15929 0 9.37495C0 9.5906 0.0557928 9.80259 0.161955 9.9903C0.268118 10.178 0.421039 10.3351 0.605855 10.4462Z" fill="url(#paint2_linear_184_1932)"/>
</g>
<defs>
<linearGradient id="paint0_linear_184_1932" x1="15.0016" y1="13.5406" x2="15.0016" y2="24.291" gradientUnits="userSpaceOnUse">
<stop stop-color="#AF8445"/>
<stop offset="0.34" stop-color="#E8C988"/>
<stop offset="0.67" stop-color="#E5CA83"/>
<stop offset="1" stop-color="#AF8445"/>
</linearGradient>
<linearGradient id="paint1_linear_184_1932" x1="15.0016" y1="19.2506" x2="15.0016" y2="30.001" gradientUnits="userSpaceOnUse">
<stop stop-color="#AF8445"/>
<stop offset="0.34" stop-color="#E8C988"/>
<stop offset="0.67" stop-color="#E5CA83"/>
<stop offset="1" stop-color="#AF8445"/>
</linearGradient>
<linearGradient id="paint2_linear_184_1932" x1="14.9996" y1="0.284302" x2="14.9996" y2="18.4662" gradientUnits="userSpaceOnUse">
<stop stop-color="#AF8445"/>
<stop offset="0.34" stop-color="#E8C988"/>
<stop offset="0.67" stop-color="#E5CA83"/>
<stop offset="1" stop-color="#AF8445"/>
</linearGradient>
<clipPath id="clip0_184_1932">
<rect width="30" height="30" fill="white"/>
</clipPath>
</defs>
</svg>
