<svg width="30" height="30" viewBox="0 0 30 30" fill="none" xmlns="http://www.w3.org/2000/svg">
<g clip-path="url(#clip0_104_564)">
<path d="M3.75 27.47C3.41848 27.47 3.10054 27.3383 2.86612 27.1039C2.6317 26.8695 2.5 26.5515 2.5 26.22V0H0V26.22C0 27.2146 0.395088 28.1684 1.09835 28.8717C1.80161 29.5749 2.75544 29.97 3.75 29.97H30V27.47H3.75Z" fill="url(#paint0_linear_104_564)"/>
<path d="M8.75 15H6.25V23.75H8.75V15Z" fill="url(#paint1_linear_104_564)"/>
<path d="M15 12.5H12.5V23.75H15V12.5Z" fill="url(#paint2_linear_104_564)"/>
<path d="M21.25 16.25H18.75V23.75H21.25V16.25Z" fill="url(#paint3_linear_104_564)"/>
<path d="M27.5 11.25H25V23.75H27.5V11.25Z" fill="url(#paint4_linear_104_564)"/>
<path d="M13.75 5.51746L20 11.7675L29.6337 2.13371L27.8662 0.366211L20 8.23246L13.75 1.98246L6.61621 9.11621L8.38371 10.8837L13.75 5.51746Z" fill="url(#paint5_linear_104_564)"/>
</g>
<defs>
<linearGradient id="paint0_linear_104_564" x1="15" y1="0" x2="15" y2="29.97" gradientUnits="userSpaceOnUse">
<stop stop-color="#AF8445"/>
<stop offset="0.34" stop-color="#E8C988"/>
<stop offset="0.67" stop-color="#E5CA83"/>
<stop offset="1" stop-color="#AF8445"/>
</linearGradient>
<linearGradient id="paint1_linear_104_564" x1="7.5" y1="15" x2="7.5" y2="23.75" gradientUnits="userSpaceOnUse">
<stop stop-color="#AF8445"/>
<stop offset="0.34" stop-color="#E8C988"/>
<stop offset="0.67" stop-color="#E5CA83"/>
<stop offset="1" stop-color="#AF8445"/>
</linearGradient>
<linearGradient id="paint2_linear_104_564" x1="13.75" y1="12.5" x2="13.75" y2="23.75" gradientUnits="userSpaceOnUse">
<stop stop-color="#AF8445"/>
<stop offset="0.34" stop-color="#E8C988"/>
<stop offset="0.67" stop-color="#E5CA83"/>
<stop offset="1" stop-color="#AF8445"/>
</linearGradient>
<linearGradient id="paint3_linear_104_564" x1="20" y1="16.25" x2="20" y2="23.75" gradientUnits="userSpaceOnUse">
<stop stop-color="#AF8445"/>
<stop offset="0.34" stop-color="#E8C988"/>
<stop offset="0.67" stop-color="#E5CA83"/>
<stop offset="1" stop-color="#AF8445"/>
</linearGradient>
<linearGradient id="paint4_linear_104_564" x1="26.25" y1="11.25" x2="26.25" y2="23.75" gradientUnits="userSpaceOnUse">
<stop stop-color="#AF8445"/>
<stop offset="0.34" stop-color="#E8C988"/>
<stop offset="0.67" stop-color="#E5CA83"/>
<stop offset="1" stop-color="#AF8445"/>
</linearGradient>
<linearGradient id="paint5_linear_104_564" x1="18.125" y1="0.366211" x2="18.125" y2="11.7675" gradientUnits="userSpaceOnUse">
<stop stop-color="#AF8445"/>
<stop offset="0.34" stop-color="#E8C988"/>
<stop offset="0.67" stop-color="#E5CA83"/>
<stop offset="1" stop-color="#AF8445"/>
</linearGradient>
<clipPath id="clip0_104_564">
<rect width="30" height="30" fill="white"/>
</clipPath>
</defs>
</svg>
