<svg width="40" height="40" viewBox="0 0 40 40" fill="none" xmlns="http://www.w3.org/2000/svg">
<g clip-path="url(#clip0_104_791)">
<path d="M20 0C8.97167 0 0 8.97167 0 20C0 31.0283 8.97167 40 20 40C31.0283 40 40 31.0283 40 20C40 8.97167 31.0283 0 20 0ZM24.1667 27.2167C23.905 27.3683 23.6183 27.44 23.335 27.44C22.7583 27.44 22.1983 27.1417 21.89 26.6067L18.5567 20.8333C18.41 20.58 18.3333 20.2933 18.3333 20V10C18.3333 9.08 19.0783 8.33333 20 8.33333C20.9217 8.33333 21.6667 9.08 21.6667 10V19.5533L24.7767 24.94C25.2367 25.7367 24.9633 26.7567 24.1667 27.2167Z" fill="url(#paint0_linear_104_791)"/>
</g>
<defs>
<linearGradient id="paint0_linear_104_791" x1="20" y1="0" x2="20" y2="40" gradientUnits="userSpaceOnUse">
<stop stop-color="#AF8445"/>
<stop offset="0.34" stop-color="#E8C988"/>
<stop offset="0.67" stop-color="#E5CA83"/>
<stop offset="1" stop-color="#AF8445"/>
</linearGradient>
<clipPath id="clip0_104_791">
<rect width="40" height="40" fill="white"/>
</clipPath>
</defs>
</svg>
